<svg width="75" height="75" viewBox="0 0 75 75" fill="none" xmlns="http://www.w3.org/2000/svg">
<path d="M41.2761 11.2085C45.7806 11.8555 50.0433 13.6489 53.6555 16.4168L52.363 18.1035C49.0399 15.557 45.1182 13.907 40.974 13.3118L41.2761 11.2085Z" fill="white"/>
<path d="M57.34 19.84C58.5077 21.1519 59.5425 22.5764 60.429 24.0926L58.5947 25.1652C57.7791 23.7703 56.8271 22.4598 55.7528 21.2528L57.34 19.84Z" fill="white"/>
<path d="M62.829 29.5036C63.3578 31.1784 63.7191 32.9016 63.9077 34.6478L61.7951 34.876C61.6216 33.2695 61.2892 31.6842 60.8027 30.1433L62.829 29.5036Z" fill="white"/>
<path d="M64.0165 39.0413C63.7451 43.7105 62.2456 48.2253 59.6696 52.1291L57.896 50.9588C60.2659 47.3673 61.6455 43.2137 61.8952 38.918L64.0165 39.0413Z" fill="white"/>
<path d="M37.196 11.001C32.7791 11.0707 28.4492 12.2409 24.5985 14.4058C20.7478 16.5706 17.4978 19.6617 15.1428 23.3991C12.7878 27.1366 11.4021 31.4024 11.1113 35.8103C10.8205 40.2182 11.6336 44.6291 13.4772 48.6436C15.3207 52.6581 18.1364 56.1493 21.6693 58.8013C25.2022 61.4533 29.3407 63.1823 33.7103 63.8317C38.0798 64.4811 42.5423 64.0304 46.6938 62.5205C50.8452 61.0105 54.5545 58.489 57.4859 55.1842L55.8962 53.7742C53.1994 56.8146 49.7868 59.1344 45.9675 60.5236C42.1481 61.9127 38.0426 62.3273 34.0227 61.7299C30.0027 61.1324 26.1952 59.5418 22.9449 57.1019C19.6946 54.6621 17.1042 51.4501 15.4082 47.7568C13.7121 44.0635 12.964 40.0055 13.2316 35.9502C13.4992 31.8949 14.774 27.9704 16.9406 24.5319C19.1072 21.0934 22.0971 18.2497 25.6398 16.258C29.1825 14.2664 33.1659 13.1898 37.2296 13.1257L37.196 11.001Z" fill="white"/>
<path fill-rule="evenodd" clip-rule="evenodd" d="M37.4784 18.239C37.5427 18.239 37.6068 18.2393 37.6709 18.2399V37.4783L34.4622 37.4783V39.0827V56.5092C31.5122 56.0451 28.7847 54.911 26.4403 53.2676V21.7155C29.5656 19.5246 33.3719 18.239 37.4784 18.239ZM37.3501 39.0827V56.7437C37.3928 56.744 37.4356 56.7441 37.4784 56.7441C41.6131 56.7441 45.4433 55.4407 48.5807 53.2224V21.7606C46.2389 20.1049 43.5111 18.9588 40.5588 18.4841V37.4783V39.0827L37.3501 39.0827ZM56.731 37.4915C56.731 42.6137 54.7307 47.2687 51.4686 50.7179V24.2651C54.7307 27.7144 56.731 32.3694 56.731 37.4915ZM23.5524 24.1976C20.2524 27.6535 18.2258 32.3358 18.2258 37.4915C18.2258 42.6472 20.2524 47.3296 23.5524 50.7855V24.1976Z" fill="white"/>
</svg>
